<svg width="176" height="122" viewBox="0 0 176 122" fill="none" xmlns="http://www.w3.org/2000/svg">
<g filter="url(#filter0_n_75_169)">
<path d="M3.54492 57.753V50.696L87.2218 99.0938L171.764 50.6914L171.726 56.9904C171.719 58.0557 171.148 59.0376 170.226 59.5702L92.9591 104.18C89.2463 106.324 84.6719 106.324 80.9591 104.18L5.04492 60.3511C4.11672 59.8152 3.54492 58.8248 3.54492 57.753Z" fill="#8B8B8B"/>
</g>
<mask id="mask0_75_169" style="mask-type:alpha" maskUnits="userSpaceOnUse" x="89" y="41" width="86" height="81">
<rect x="89.4004" y="41.4141" width="85.5078" height="80.2969" fill="#D9D9D9"/>
</mask>
<g mask="url(#mask0_75_169)">
<g filter="url(#filter1_n_75_169)">
<path d="M3.54492 57.753V50.696L87.2218 99.0938L171.764 50.6914L171.726 56.9904C171.719 58.0557 171.148 59.0376 170.226 59.5702L92.9591 104.18C89.2463 106.324 84.6719 106.324 80.9591 104.18L5.04492 60.3511C4.11672 59.8152 3.54492 58.8248 3.54492 57.753Z" fill="#656565"/>
</g>
</g>
<rect width="101.217" height="101.217" rx="7" transform="matrix(0.866025 0.5 -0.866025 0.5 87.6562 0)" fill="#414141"/>
<defs>
<filter id="filter0_n_75_169" x="3.54492" y="50.6914" width="168.219" height="55.0977" filterUnits="userSpaceOnUse" color-interpolation-filters="sRGB">
<feFlood flood-opacity="0" result="BackgroundImageFix"/>
<feBlend mode="normal" in="SourceGraphic" in2="BackgroundImageFix" result="shape"/>
<feTurbulence type="fractalNoise" baseFrequency="5 5" stitchTiles="stitch" numOctaves="3" result="noise" seed="2246" />
<feColorMatrix in="noise" type="luminanceToAlpha" result="alphaNoise" />
<feComponentTransfer in="alphaNoise" result="coloredNoise1">
<feFuncA type="discrete" tableValues="1 1 1 1 1 1 1 1 1 1 1 1 1 1 1 1 1 1 1 1 1 1 1 1 1 1 1 1 1 1 1 1 1 1 1 1 1 1 1 1 1 1 1 1 1 1 1 1 1 1 1 0 0 0 0 0 0 0 0 0 0 0 0 0 0 0 0 0 0 0 0 0 0 0 0 0 0 0 0 0 0 0 0 0 0 0 0 0 0 0 0 0 0 0 0 0 0 0 0 0 "/>
</feComponentTransfer>
<feComposite operator="in" in2="shape" in="coloredNoise1" result="noise1Clipped" />
<feFlood flood-color="rgba(0, 0, 0, 0.25)" result="color1Flood" />
<feComposite operator="in" in2="noise1Clipped" in="color1Flood" result="color1" />
<feMerge result="effect1_noise_75_169">
<feMergeNode in="shape" />
<feMergeNode in="color1" />
</feMerge>
</filter>
<filter id="filter1_n_75_169" x="3.54492" y="50.6914" width="168.219" height="55.0977" filterUnits="userSpaceOnUse" color-interpolation-filters="sRGB">
<feFlood flood-opacity="0" result="BackgroundImageFix"/>
<feBlend mode="normal" in="SourceGraphic" in2="BackgroundImageFix" result="shape"/>
<feTurbulence type="fractalNoise" baseFrequency="5 5" stitchTiles="stitch" numOctaves="3" result="noise" seed="2246" />
<feColorMatrix in="noise" type="luminanceToAlpha" result="alphaNoise" />
<feComponentTransfer in="alphaNoise" result="coloredNoise1">
<feFuncA type="discrete" tableValues="1 1 1 1 1 1 1 1 1 1 1 1 1 1 1 1 1 1 1 1 1 1 1 1 1 1 1 1 1 1 1 1 1 1 1 1 1 1 1 1 1 1 1 1 1 1 1 1 1 1 1 0 0 0 0 0 0 0 0 0 0 0 0 0 0 0 0 0 0 0 0 0 0 0 0 0 0 0 0 0 0 0 0 0 0 0 0 0 0 0 0 0 0 0 0 0 0 0 0 0 "/>
</feComponentTransfer>
<feComposite operator="in" in2="shape" in="coloredNoise1" result="noise1Clipped" />
<feFlood flood-color="rgba(0, 0, 0, 0.25)" result="color1Flood" />
<feComposite operator="in" in2="noise1Clipped" in="color1Flood" result="color1" />
<feMerge result="effect1_noise_75_169">
<feMergeNode in="shape" />
<feMergeNode in="color1" />
</feMerge>
</filter>
</defs>
</svg>
